/* XPM */
static char *result[] = {
/* columns rows colors chars-per-pixel */
"64 64 6 1 ",
"  c black",
". c #997700",
"X c #CC8800",
"o c #DDAA00",
"O c #FFEE00",
"+ c white",
/* pixels */
"                    ....................                        ",
"                    ....................                        ",
"                    ....................                        ",
"                    ....................                        ",
"            ........++++++++++++++++++++........                ",
"            ........++++++++++++++++++++........                ",
"            ........++++++++++++++++++++........                ",
"            ........++++++++++++++++++++........                ",
"        ....++++++++OOOOOOOOOOOOOOOOOOOO++++++++....            ",
"        ....++++++++OOOOOOOOOOOOOOOOOOOO++++++++....            ",
"        ....++++++++OOOOOOOOOOOOOOOOOOOO++++++++....            ",
"        ....++++++++OOOOOOOOOOOOOOOOOOOO++++++++....            ",
"    ....++++OOOOOOOOOOOOXXXXXXXXXXXXOOOOOOOOOOOO++++....        ",
"    ....++++OOOOOOOOOOOOXXXXXXXXXXXXOOOOOOOOOOOO++++....        ",
"    ....++++OOOOOOOOOOOOXXXXXXXXXXXXOOOOOOOOOOOO++++....        ",
"    ....++++OOOOOOOOOOOOXXXXXXXXXXXXOOOOOOOOOOOO++++....        ",
"    ....OOOOOOOOXXXXXXXXooooooooooooXXXXXXXXOOOOOOOO....        ",
"    ....OOOOOOOOXXXXXXXXooooooooooooXXXXXXXXOOOOOOOO....        ",
"    ....OOOOOOOOXXXXXXXXooooooooooooXXXXXXXXOOOOOOOO....        ",
"    ....OOOOOOOOXXXXXXXXooooooooooooXXXXXXXXOOOOOOOO....        ",
"....++++OOOOOOOOooooooooOOOOOOOOOOOOooooooooOOOOOOOO++++....    ",
"....++++OOOOOOOOooooooooOOOOOOOOOOOOooooooooOOOOOOOO++++....    ",
"....++++OOOOOOOOooooooooOOOOOOOOOOOOooooooooOOOOOOOO++++....    ",
"....++++OOOOOOOOooooooooOOOOOOOOOOOOooooooooOOOOOOOO++++....    ",
"....OOOOOOOOXXXXooooOOOOooooooooooooOOOOooooXXXXOOOOOOOO....    ",
"....OOOOOOOOXXXXooooOOOOooooooooooooOOOOooooXXXXOOOOOOOO....    ",
"....OOOOOOOOXXXXooooOOOOooooooooooooOOOOooooXXXXOOOOOOOO....    ",
"....OOOOOOOOXXXXooooOOOOooooooooooooOOOOooooXXXXOOOOOOOO....    ",
"....OOOOOOOOooooooooOOOOooooooooooooooooooooooooOOOOOOOO....    ",
"....OOOOOOOOooooooooOOOOooooooooooooooooooooooooOOOOOOOO....    ",
"....OOOOOOOOooooooooOOOOooooooooooooooooooooooooOOOOOOOO....    ",
"....OOOOOOOOooooooooOOOOooooooooooooooooooooooooOOOOOOOO....    ",
"....OOOOOOOOooooooooOOOOooooooooooooooooooooooooOOOOOOOO....    ",
"....OOOOOOOOooooooooOOOOooooooooooooooooooooooooOOOOOOOO....    ",
"....OOOOOOOOooooooooOOOOooooooooooooooooooooooooOOOOOOOO....    ",
"....OOOOOOOOooooooooOOOOooooooooooooooooooooooooOOOOOOOO....    ",
"....OOOOOOOOooooooooOOOOooooooooooooOOOOooooooooOOOOOOOO....    ",
"....OOOOOOOOooooooooOOOOooooooooooooOOOOooooooooOOOOOOOO....    ",
"....OOOOOOOOooooooooOOOOooooooooooooOOOOooooooooOOOOOOOO....    ",
"....OOOOOOOOooooooooOOOOooooooooooooOOOOooooooooOOOOOOOO....    ",
"....OOOOOOOO++++ooooooooOOOOOOOOOOOOoooooooo++++OOOOOOOO....    ",
"....OOOOOOOO++++ooooooooOOOOOOOOOOOOoooooooo++++OOOOOOOO....    ",
"....OOOOOOOO++++ooooooooOOOOOOOOOOOOoooooooo++++OOOOOOOO....    ",
"....OOOOOOOO++++ooooooooOOOOOOOOOOOOoooooooo++++OOOOOOOO....    ",
"    ....OOOOOOOOooooooooooooooooooooooooooooOOOOOOOO....        ",
"    ....OOOOOOOOooooooooooooooooooooooooooooOOOOOOOO....        ",
"    ....OOOOOOOOooooooooooooooooooooooooooooOOOOOOOO....        ",
"    ....OOOOOOOOooooooooooooooooooooooooooooOOOOOOOO....        ",
"    ....OOOOOOOO++++++++oooooooooooo++++++++OOOOOOOO....        ",
"    ....OOOOOOOO++++++++oooooooooooo++++++++OOOOOOOO....        ",
"    ....OOOOOOOO++++++++oooooooooooo++++++++OOOOOOOO....        ",
"    ....OOOOOOOO++++++++oooooooooooo++++++++OOOOOOOO....        ",
"        ....OOOOOOOOOOOO++++++++++++OOOOOOOOOOOO....            ",
"        ....OOOOOOOOOOOO++++++++++++OOOOOOOOOOOO....            ",
"        ....OOOOOOOOOOOO++++++++++++OOOOOOOOOOOO....            ",
"        ....OOOOOOOOOOOO++++++++++++OOOOOOOOOOOO....            ",
"            ........OOOOOOOOOOOOOOOOOOOO........                ",
"            ........OOOOOOOOOOOOOOOOOOOO........                ",
"            ........OOOOOOOOOOOOOOOOOOOO........                ",
"            ........OOOOOOOOOOOOOOOOOOOO........                ",
"                    ....................                        ",
"                    ....................                        ",
"                    ....................                        ",
"                    ....................                        "
};
